<svg width="400" height="300" viewBox="0 0 400 300" fill="none" xmlns="http://www.w3.org/2000/svg">
  <rect width="400" height="300" fill="#f1f5f9"/>
  <circle cx="200" cy="120" r="50" fill="#e2e8f0"/>
  <path d="M200 170c-27.614 0-50 22.386-50 50v80h100v-80c0-27.614-22.386-50-50-50z" fill="#e2e8f0"/>
  <circle cx="200" cy="100" r="25" fill="#cbd5e1"/>
  <path d="M175 95c0-13.807 11.193-25 25-25s25 11.193 25 25" stroke="#94a3b8" stroke-width="2"/>
  <rect x="190" y="140" width="20" height="40" rx="10" fill="#3b82f6"/>
  <rect x="185" y="150" width="30" height="4" rx="2" fill="#2563eb"/>
  <rect x="185" y="160" width="30" height="4" rx="2" fill="#2563eb"/>
  <circle cx="185" cy="85" r="3" fill="#1d4ed8"/>
  <circle cx="215" cy="85" r="3" fill="#1d4ed8"/>
  <path d="M190 110c5 5 15 5 20 0" stroke="#64748b" stroke-width="2" stroke-linecap="round"/>
  <rect x="180" y="75" width="40" height="8" rx="4" fill="#64748b"/>
  <text x="200" y="280" text-anchor="middle" fill="#64748b" font-family="system-ui" font-size="14" font-weight="500">Medical Doctor</text>
</svg>
