<svg width="400" height="300" viewBox="0 0 400 300" fill="none" xmlns="http://www.w3.org/2000/svg">
  <rect width="400" height="300" fill="#fef7ed"/>
  <circle cx="200" cy="120" r="50" fill="#fed7aa"/>
  <path d="M200 170c-27.614 0-50 22.386-50 50v80h100v-80c0-27.614-22.386-50-50-50z" fill="#fed7aa"/>
  <circle cx="200" cy="100" r="25" fill="#fdba74"/>
  <path d="M175 95c0-13.807 11.193-25 25-25s25 11.193 25 25" stroke="#f97316" stroke-width="2"/>
  <rect x="190" y="140" width="20" height="40" rx="10" fill="#10b981"/>
  <rect x="185" y="150" width="30" height="4" rx="2" fill="#059669"/>
  <rect x="185" y="160" width="30" height="4" rx="2" fill="#059669"/>
  <circle cx="185" cy="85" r="3" fill="#dc2626"/>
  <circle cx="215" cy="85" r="3" fill="#dc2626"/>
  <path d="M190 110c5 5 15 5 20 0" stroke="#ea580c" stroke-width="2" stroke-linecap="round"/>
  <circle cx="200" cy="130" r="15" fill="none" stroke="#f97316" stroke-width="2"/>
  <path d="M190 130h20M200 120v20" stroke="#f97316" stroke-width="3" stroke-linecap="round"/>
  <text x="200" y="280" text-anchor="middle" fill="#ea580c" font-family="system-ui" font-size="14" font-weight="500">Medical Specialist</text>
</svg>

